{
	"asset":{
		"generator":"Khronos glTF Blender I/O v3.5.30",
		"version":"2.0"
	},
	"scene":0,
	"scenes":[
		{
			"name":"Scene",
			"nodes":[
				0,
				1,
				2,
				3
			]
		}
	],
	"nodes":[
		{
			"mesh":0,
			"name":"Curve",
			"scale":[
				4.575999736785889,
				4.575999736785889,
				4.575999736785889
			],
			"translation":[
				-1.460823655128479,
				-0.1963035613298416,
				1.3581664562225342
			]
		},
		{
			"mesh":1,
			"name":"Curve.001",
			"scale":[
				4.575999736785889,
				4.575999736785889,
				4.575999736785889
			],
			"translation":[
				-1.3149113655090332,
				-0.20650970935821533,
				1.3581664562225342
			]
		},
		{
			"mesh":2,
			"name":"Curve.002",
			"scale":[
				4.575999736785889,
				4.575999736785889,
				4.575999736785889
			],
			"translation":[
				-1.3149113655090332,
				0.047867052257061005,
				1.3581664562225342
			]
		},
		{
			"mesh":3,
			"name":"Curve.003",
			"scale":[
				4.575999736785889,
				4.575999736785889,
				4.575999736785889
			],
			"translation":[
				-1.4655321836471558,
				0.047867052257061005,
				1.3581664562225342
			]
		}
	],
	"materials":[
		{
			"doubleSided":true,
			"name":"Red",
			"pbrMetallicRoughness":{
				"baseColorFactor":[
					0.8227861523628235,
					0.05612827464938164,
					0.03560135141015053,
					1
				],
				"metallicFactor":0,
				"roughnessFactor":0.5
			}
		},
		{
			"doubleSided":true,
			"name":"Yellow.001",
			"pbrMetallicRoughness":{
				"baseColorFactor":[
					0.9646861553192139,
					0.5028860569000244,
					0.0015178036410361528,
					1
				],
				"metallicFactor":0,
				"roughnessFactor":0.5
			}
		},
		{
			"doubleSided":true,
			"name":"Green",
			"pbrMetallicRoughness":{
				"baseColorFactor":[
					0.03433946147561073,
					0.39157235622406006,
					0.08650054037570953,
					1
				],
				"metallicFactor":0,
				"roughnessFactor":0.5
			}
		},
		{
			"doubleSided":true,
			"name":"Blue",
			"pbrMetallicRoughness":{
				"baseColorFactor":[
					0.05447955057024956,
					0.2345501333475113,
					0.9046609997749329,
					1
				],
				"metallicFactor":0,
				"roughnessFactor":0.5
			}
		}
	],
	"meshes":[
		{
			"name":"Curve",
			"primitives":[
				{
					"attributes":{
						"POSITION":0,
						"TEXCOORD_0":1,
						"NORMAL":2
					},
					"indices":3,
					"material":0
				}
			]
		},
		{
			"name":"Curve.001",
			"primitives":[
				{
					"attributes":{
						"POSITION":4,
						"TEXCOORD_0":5,
						"NORMAL":6
					},
					"indices":3,
					"material":1
				}
			]
		},
		{
			"name":"Curve.002",
			"primitives":[
				{
					"attributes":{
						"POSITION":7,
						"TEXCOORD_0":8,
						"NORMAL":9
					},
					"indices":10,
					"material":2
				}
			]
		},
		{
			"name":"Curve.003",
			"primitives":[
				{
					"attributes":{
						"POSITION":11,
						"TEXCOORD_0":12,
						"NORMAL":13
					},
					"indices":10,
					"material":3
				}
			]
		}
	],
	"accessors":[
		{
			"bufferView":0,
			"componentType":5126,
			"count":2854,
			"max":[
				0.31356939673423767,
				0.019999999552965164,
				-0.2575312852859497
			],
			"min":[
				0.11861073225736618,
				-0.019999999552965164,
				-0.40232035517692566
			],
			"type":"VEC3"
		},
		{
			"bufferView":1,
			"componentType":5126,
			"count":2854,
			"type":"VEC2"
		},
		{
			"bufferView":2,
			"componentType":5126,
			"count":2854,
			"type":"VEC3"
		},
		{
			"bufferView":3,
			"componentType":5123,
			"count":16188,
			"type":"SCALAR"
		},
		{
			"bufferView":4,
			"componentType":5126,
			"count":2854,
			"max":[
				0.5225077271461487,
				0.019999999552965164,
				-0.18933311104774475
			],
			"min":[
				0.3275490701198578,
				-0.019999999552965164,
				-0.3341221511363983
			],
			"type":"VEC3"
		},
		{
			"bufferView":5,
			"componentType":5126,
			"count":2854,
			"type":"VEC2"
		},
		{
			"bufferView":6,
			"componentType":5126,
			"count":2854,
			"type":"VEC3"
		},
		{
			"bufferView":7,
			"componentType":5126,
			"count":2854,
			"max":[
				0.5221462249755859,
				0.019999999552965164,
				-0.2583048939704895
			],
			"min":[
				0.3279018700122833,
				-0.019999999552965164,
				-0.40237948298454285
			],
			"type":"VEC3"
		},
		{
			"bufferView":8,
			"componentType":5126,
			"count":2854,
			"type":"VEC2"
		},
		{
			"bufferView":9,
			"componentType":5126,
			"count":2854,
			"type":"VEC3"
		},
		{
			"bufferView":10,
			"componentType":5123,
			"count":16188,
			"type":"SCALAR"
		},
		{
			"bufferView":11,
			"componentType":5126,
			"count":2854,
			"max":[
				0.31315934658050537,
				0.019999999552965164,
				-0.18940171599388123
			],
			"min":[
				0.11891500651836395,
				-0.019999999552965164,
				-0.33347633481025696
			],
			"type":"VEC3"
		},
		{
			"bufferView":12,
			"componentType":5126,
			"count":2854,
			"type":"VEC2"
		},
		{
			"bufferView":13,
			"componentType":5126,
			"count":2854,
			"type":"VEC3"
		}
	],
	"bufferViews":[
		{
			"buffer":0,
			"byteLength":34248,
			"byteOffset":0,
			"target":34962
		},
		{
			"buffer":0,
			"byteLength":22832,
			"byteOffset":34248,
			"target":34962
		},
		{
			"buffer":0,
			"byteLength":34248,
			"byteOffset":57080,
			"target":34962
		},
		{
			"buffer":0,
			"byteLength":32376,
			"byteOffset":91328,
			"target":34963
		},
		{
			"buffer":0,
			"byteLength":34248,
			"byteOffset":123704,
			"target":34962
		},
		{
			"buffer":0,
			"byteLength":22832,
			"byteOffset":157952,
			"target":34962
		},
		{
			"buffer":0,
			"byteLength":34248,
			"byteOffset":180784,
			"target":34962
		},
		{
			"buffer":0,
			"byteLength":34248,
			"byteOffset":215032,
			"target":34962
		},
		{
			"buffer":0,
			"byteLength":22832,
			"byteOffset":249280,
			"target":34962
		},
		{
			"buffer":0,
			"byteLength":34248,
			"byteOffset":272112,
			"target":34962
		},
		{
			"buffer":0,
			"byteLength":32376,
			"byteOffset":306360,
			"target":34963
		},
		{
			"buffer":0,
			"byteLength":34248,
			"byteOffset":338736,
			"target":34962
		},
		{
			"buffer":0,
			"byteLength":22832,
			"byteOffset":372984,
			"target":34962
		},
		{
			"buffer":0,
			"byteLength":34248,
			"byteOffset":395816,
			"target":34962
		}
	],
	"buffers":[
		{
			"byteLength":430064,
			"uri":"data:application/octet-stream;base64,"
		}
	]
}
